<svg xmlns="http://www.w3.org/2000/svg" width="1120" height="520" viewBox="0 0 1120 520" role="img" aria-label="srm-memory-faultline working project preview">
  <defs>
    <style>
      .bg { fill: #f8fafc; }
      .panel { fill: #ffffff; stroke: #d9e2ec; stroke-width: 1.2; }
      .title { font: 750 32px -apple-system, BlinkMacSystemFont, "Segoe UI", sans-serif; fill: #111827; }
      .sub { font: 400 17px -apple-system, BlinkMacSystemFont, "Segoe UI", sans-serif; fill: #475569; }
      .label { font: 650 15px -apple-system, BlinkMacSystemFont, "Segoe UI", sans-serif; fill: #1f2937; }
      .small { font: 500 13px -apple-system, BlinkMacSystemFont, "Segoe UI", sans-serif; fill: #64748b; }
      .metric { font: 750 30px -apple-system, BlinkMacSystemFont, "Segoe UI", sans-serif; fill: #0f172a; }
    </style>
  </defs>
  <rect class="bg" width="1120" height="520"/>
  <rect class="panel" x="28" y="28" width="1064" height="464" rx="18"/>
  <text class="title" x="48" y="82">srm-memory-faultline local evidence run</text>
  <text class="sub" x="48" y="116">Generated from checked-in fixture replay and verification outputs.</text>
  <rect x="48" y="140" width="210" height="72" rx="14" fill="#eff6ff"/>
  <text class="small" x="68" y="168">cases/findings</text>
  <text class="metric" x="68" y="198">7</text>
  <rect x="276" y="140" width="210" height="72" rx="14" fill="#fef2f2"/>
  <text class="small" x="296" y="168">blocked/high risk</text>
  <text class="metric" x="296" y="198">6</text>
  <rect x="504" y="140" width="210" height="72" rx="14" fill="#f0fdf4"/>
  <text class="small" x="524" y="168">review queue</text>
  <text class="metric" x="524" y="198">7</text>
  <text x="48" y="173" class="label">Avatar modality bypassed gove...</text><rect x="48" y="185" width="248" height="20" rx="6" fill="#2563eb"/><text x="312" y="200" class="small">ev_000_05, ev_001_05</text><text x="48" y="231" class="label">Release drift changed sales r...</text><rect x="48" y="243" width="336" height="20" rx="6" fill="#0891b2"/><text x="400" y="258" class="small">ev_000_04, ev_001_04</text><text x="48" y="289" class="label">Injected graph traversal loop...</text><rect x="48" y="301" width="336" height="20" rx="6" fill="#16a34a"/><text x="400" y="316" class="small">ev_000_03, ev_001_03</text><text x="48" y="347" class="label">Cross-tenant structured memor...</text><rect x="48" y="359" width="336" height="20" rx="6" fill="#ca8a04"/><text x="400" y="374" class="small">ev_000_02, ev_001_02</text>
  <text class="small" x="48" y="466">This image is generated from the repo's current output artifacts, not a mock screenshot.</text>
</svg>
